<?xml version="1.0"?>
<svg xmlns:rdf="http://www.w3.org/1999/02/22-rdf-syntax-ns#" xmlns="http://www.w3.org/2000/svg" xmlns:cc="http://web.resource.org/cc/" xmlns:xlink="http://www.w3.org/1999/xlink" xmlns:dc="http://purl.org/dc/elements/1.1/" xmlns:svg="http://www.w3.org/2000/svg" space="preserve" viewBox="0 0 224.479 682.441" enable-background="new 0 0 224.479 682.441" overflow="visible">
  <g id="Layer_1">
    <path fill-rule="evenodd" clip-rule="evenodd" d="m42.54 148.05c13.911 0 25.2 6.387 25.2 14.256s-11.29 14.256-25.2 14.256c-13.91 0-25.2-6.387-25.2-14.256s11.29-14.26 25.2-14.26" fill="#fff"/>
    <path d="m223.22 651.26c1.367 2.556 1.584 5.508 1.043 8.855-0.648 3.349-0.252 7.704-4.787 11.124-4.68 3.313-16.02 6.624-23.041 8.532-7.199 1.8-14.004 3.816-19.295 1.872-5.365-2.124-9.324-6.912-12.277-14.364 1.477-0.432 2.232-2.376 2.557-5.976 0.18-3.564 0.9-4.248-1.043-15.516-2.088-11.557-6.697-33.337-10.908-52.416-4.32-19.188-9.938-43.669-14.328-61.093-4.428-17.388-6.588-24.372-11.629-42.336-5.076-18.18-11.123-39.492-18.432-65.304-2.16 0.684-3.924 0.684-5.292 0-1.476-0.648-2.592-1.692-3.06-4.104-0.576-2.592-0.396-6.3 0.144-11.268-2.376 1.477-3.96 1.08-4.608-1.188-0.72-2.412-0.648-6.444 0.36-12.637-2.628-0.252-3.96-0.863-4.428-1.691-0.468-0.9 1.08-2.736 1.872-3.42 0.828-0.757 1.692-1.152 2.88-1.044l-0.504-4.248c-0.72-0.217-1.008-0.721-1.008-1.368 0-0.721 0.288-1.692 1.008-2.916l-4.104-18.433c-2.592-0.611-4.356-1.728-5.292-3.06-0.936-1.476-0.72-3.888-0.324-5.292 0.324-1.548 1.116-2.556 2.376-3.42-3.168-12.78-5.436-21.204-6.66-25.272-1.296-4.068-1.692-3.996-1.044 0.612-4.212 1.116-7.056 1.512-8.532 1.188-1.548-0.396-1.764-2.448-0.36-3.384 1.404-1.008 4.104-1.872 8.532-2.592-2.916-1.836-4.572-3.708-5.112-5.616-0.54-1.944 0.036-3.888 1.872-5.976-2.016-9.936-3.384-15.696-4.248-17.424-0.792-1.692-0.288 5.688-0.864 7.02-0.828 1.224-1.368 2.952-3.42 0.18-2.016-2.988-6.156-9.648-8.532-17.604-2.556-8.136-5.58-21.492-6.3-30.204-0.756-8.712-0.18-15.804 1.872-21.672l-3.6-11.952c-0.72 1.296-1.728 1.98-2.736 2.052-1.26 0.108-2.556-0.468-3.744-1.872-1.08-1.656-2.268-6.12-2.736-7.704-0.504-1.656-0.612-2.268-0.324-1.98-1.332-0.396-2.196-1.836-2.592-3.924-0.468-2.196-0.468-5.22 0-9.072-2.376-2.52-3.96-5.112-4.752-7.488-0.828-2.52-0.792-5.976-0.18-7.164 0.576-1.152 1.62-1.152 3.42 0.144l-2.232-10.728c-3.132 1.548-5.004 1.728-5.616 0.684-0.648-1.116-0.072-3.456 1.872-7.164l-1.368-4.644c-2.268-0.144-3.924-0.864-5.112-2.016-1.296-1.26-2.16-3.492-2.052-5.148 0.072-1.656 1.08-3.24 2.88-4.752l-5.616-23.22c-0.648 0.828-1.08 0.54-1.692-0.864-0.612-1.512-2.16-5.688-1.728-7.524 0.36-1.836 1.62-2.916 3.924-3.384l-13.206-46.714c-2.052-1.512-3.42-3.096-4.104-4.608-0.792-1.656-0.9-3.384-0.324-4.788 0.504-1.476 1.692-2.628 3.564-3.744-0.828-1.44-1.044-2.592-0.504-3.6 0.468-1.044 1.656-1.944 3.564-2.556l-3.24-10.044 1.368-0.18-11.412-35.172 7.668-0.684 7.524 34.812 2.016-0.36 1.548 10.116c1.404 0.54 2.304 1.008 3.096 1.692 0.684 0.612 1.08 1.296 1.188 2.052 2.052-0.216 3.816 0.072 5.436 0.864 1.548 0.684 3.42 2.124 4.104 3.924 0.612 1.764 0.396 4.284-0.504 7.164 1.152 1.08 2.052 2.376 2.556 3.744 0.36 1.296 0.108 3.528 0.36 4.608 0.216 1.08 0.72 1.98 1.368 1.872 0.576-0.216 1.62-3.132 2.556-3.06 0.936 0.108 2.088 1.944 3.06 3.42 0.828 1.368 0-2.304 2.376 4.932 2.34 7.308 6.228 19.728 11.808 38.232l2.808 2.916c2.268 0.252 3.672 1.26 4.752 2.736 0.936 1.368 0.18 2.952 1.044 6.3 0.756 3.348 2.052 8.064 3.744 14.004 1.656 5.832 3.6 12.78 5.976 20.988l-4.104 0.504-11.592-35.82-2.736 2.052 3.744 12.276c1.332 0.144 2.412 0.756 3.096 2.232 0.684 1.44 0.972 3.348 1.008 6.12l9.9 30.204c1.98 0.72 3.024 1.584 3.42 2.592 0.324 1.008-0.18 2.088-1.368 3.384l11.808 34.74-2.376 2.736c2.232 0.576 3.204 1.44 2.916 2.736-0.36 1.296-1.908 2.844-4.788 4.932 1.548 0.792 2.412 2.052 2.736 3.78 0.288 1.692-0.108 3.744-1.044 6.3l2.916 5.472c2.592-2.304 5.04-3.78 7.344-4.428 2.232-0.72 4.932-0.972 6.3 0.504 1.26 1.404 2.844 7.092 1.548 8.172-1.44 0.936-7.92-2.664-9.72-2.196-1.872 0.468-2.232 1.908-1.224 4.752 2.088-0.756 3.924-0.684 5.652 0.36 1.656 0.972 3.132 2.844 4.428 5.616 1.512-3.456 3.492-2.196 6.336 3.78 2.808 6.012 6.085 16.56 10.224 32.076l-8.352 3.6 8.027 33.552c1.549 0.792 2.664 1.872 3.061 3.24 0.359 1.368 0.289 2.916-0.504 4.788l2.377 7.524c1.223 1.26 2.123 2.448 2.41 3.563 0.289 1.045 0.109 2.017-0.539 2.916l3.24 9.036c1.547 1.225 2.627 2.593 3.096 4.104 0.396 1.476 0.324 3.023-0.359 4.788 0.828 3.096 2.303 7.271 4.283 12.96 2.016 5.651 5.797 15.804 7.74 20.592 1.764 4.572 2.771 4.86 3.6 6.84 0.865 1.944 1.225 3.24 1.369 4.428 1.691 0.505 2.555 1.08 2.734 1.729 0.109 0.648-0.574 1.332-2.051 2.196-0.037 3.672 0.576 6.84 1.547 9.899 0.973 2.988 2.449 5.616 4.43 8.028 2.088 0.432 3.131 1.116 3.42 2.052 0.215 0.973-0.469 1.98-2.053 3.42-0.217 1.62 0.072 3.276 1.008 5.112 0.9 1.764 3.348 3.6 4.428 5.652 0.865 2.088 1.404 4.067 1.225 6.479 2.303 0.108 3.275 0.576 3.061 1.692-0.252 1.08-1.729 2.52-4.43 4.607 1.584 3.924 2.557 6.948 3.061 9.072 0.396 2.088 0.289 3.276-0.324 3.564l11.088 33.443c1.477 0.792 2.232 1.692 2.557 2.557 0.18 0.899-0.072 1.764-1.045 2.735 1.584 3.672 2.953 7.057 3.961 10.44 1.045 3.275 1.729 6.443 2.195 9.359-1.512 1.009-2.52 1.765-2.879 2.412-0.432 0.576-0.217 0.973 0.504 1.188l3.564 15.191c1.836 0.181 2.844 0.685 3.42 1.368 0.395 0.612-0.613 1.8-0.504 2.736 0.035 0.72 1.15 1.332 1.008 2.376-0.145 1.08-0.865 2.34-2.018 3.924 2.342 7.488 4.934 15.84 8.174 25.74 3.203 9.756 7.307 24.3 10.764 32.939 3.203 8.496 6.227 13.933 9.215 18.252 2.953 4.248 5.904 6.696 8.713 7.345l0.03-0.02z" fill-rule="evenodd" stroke="#000" stroke-miterlimit="10" clip-rule="evenodd" stroke-width=".036"/>
    <path d="m167.14 583.11c0.791 5.652 5.039 20.772 7.488 30.637 2.375 9.684 5.074 18.647 6.695 27.18 1.367 8.388 1.043 19.332 2.232 23.112 1.223 3.672 5.256 6.695 4.859-1.188-0.684-8.28-5.004-32.724-8.1-46.691-3.096-13.969-8.461-30.276-10.549-35.893-2.3-5.51-3.45-2.81-2.62 2.84z" fill-rule="evenodd" stroke="#000" clip-rule="evenodd" stroke-miterlimit="10" stroke-width=".036" fill="#363C4A"/>
    <path d="m192.7 639.31c-0.215 3.384 2.197 13.932 4.465 16.236 2.268 2.016 8.676 0.144 8.928-3.24 0.037-3.348-5.867-14.544-8.137-16.668-2.41-2.16-5.04 0.21-5.25 3.67z" fill-rule="evenodd" stroke="#000" clip-rule="evenodd" stroke-miterlimit="10" stroke-width=".036" fill="#363C4A"/>
    <path d="m202.2 663.43c1.332-1.225 4.033-0.396 6.301-1.8 2.195-1.513 6.695-7.452 7.092-6.696 0.252 0.72-2.447 8.784-5.039 11.16-2.557 2.304-8.857 2.988-10.152 2.628-1.4-0.54 0.36-4.1 1.8-5.29z" fill-rule="evenodd" stroke="#000" clip-rule="evenodd" stroke-miterlimit="10" stroke-width=".036" fill="#363C4A"/>
    <path d="m190.64 582.9c-1.801-0.036-3.42 0.396-4.861 1.44-1.584 0.936-3.238 2.844-3.852 4.464-0.719 1.476-0.648 3.6 0.217 4.86 0.791 1.188 3.061 2.34 4.859 2.628 1.764 0.252 3.672-0.036 5.869-1.009l-0.793-1.836c-2.268 0.685-3.889 0.937-5.291 0.612-1.404-0.432-2.629-1.188-2.846-2.412-0.432-1.188-0.322-3.42 1.008-4.464 1.297-1.08 3.602-1.764 6.912-2.052-0.4-0.72-0.79-1.48-1.23-2.23z" fill-rule="evenodd" stroke="#000" clip-rule="evenodd" stroke-miterlimit="10" stroke-width=".036" fill="#363C4A"/>
    <path d="m183.77 557.16c1.98 0 3.133 0.288 3.457 1.009 0.252 0.611-1.729 2.088-1.656 3.023 0.035 0.864 1.691 1.404 1.656 2.448-0.252 0.899-1.512 2.7-2.664 3.456-1.26 0.684-3.6 1.224-4.248 0.792-0.648-0.576-0.289-2.556 0.396-3.42 0.504-0.721 2.447-0.973 3.059-1.44 0.576-0.72 0.541-1.439 0.18-2.448-2.52 1.045-4.752 1.801-6.695 2.664-1.98 0.828-3.672 1.368-5.076 2.017 0.18 2.844-0.359 5.076-1.619 6.695-1.404 1.584-3.709 2.629-6.084 2.845-2.412 0.107-6.408-0.433-8.102-2.017-1.799-1.728-2.951-5.508-2.627-7.739 0.217-2.341 2.375-4.752 4.248-5.868 1.871-1.116 4.283-1.548 6.695-1.008 2.34 0.504 4.609 1.691 7.092 3.852 1.514-0.432 3.277-1.044 5.293-1.836 1.97-0.82 4.2-1.83 6.69-3.01z" fill-rule="evenodd" stroke="#000" clip-rule="evenodd" stroke-miterlimit="10" stroke-width=".036" fill="#A1A1A1"/>
    <path fill-rule="evenodd" clip-rule="evenodd" d="m158.6 565.04l-2.016-2.628c0.756-1.152 1.691-1.908 2.809-2.412 1.043-0.504 2.268-0.757 3.672-0.612v4.248c-1.47 0.46-2.94 0.93-4.46 1.4z" fill="#fff"/>
    <path fill-rule="evenodd" clip-rule="evenodd" d="m159.4 567.88l2.664-0.612c0.828 0.937 1.295 1.692 1.404 2.664 0.035 0.792-0.182 1.8-0.793 2.628l-3.061-0.612c-0.07-1.33-0.14-2.7-0.21-4.07z" fill="#fff"/>
    <path d="m166.7 567.49l0.434 3.673c0.504 0.18 1.043-0.217 1.619-1.045 0.504-0.863 1.045-2.159 1.621-4.031-1.22 0.46-2.44 0.93-3.67 1.4z" fill-rule="evenodd" stroke="#000" stroke-miterlimit="10" clip-rule="evenodd" stroke-width=".036"/>
    <path d="m165.08 563.64l4.68-1.224-2.447-2.017-2.23 3.24z" fill-rule="evenodd" stroke="#000" stroke-miterlimit="10" clip-rule="evenodd" stroke-width=".036"/>
    <path d="m158.21 523.46c3.238-1.08 6.227-2.088 9.107-3.024 2.844-1.008 6.408-1.908 7.92-2.844 1.367-1.008 1.619-2.304 0.611-2.628-1.188-0.288-3.564-0.072-6.695 0.792-3.205 0.864-7.057 2.195-11.988 4.284-0.721-2.196-2.088-3.601-4.248-4.068-2.16-0.504-6.623-0.36-8.531 1.008-2.088 1.332-3.277 4.393-3.42 6.696-0.252 2.196 0.863 4.824 2.23 6.479 1.26 1.584 3.313 2.628 5.473 2.845 2.088 0 5.473-0.396 7.092-2.017 1.55-1.65 2.41-4.06 2.45-7.52z" fill-rule="evenodd" stroke="#000" clip-rule="evenodd" stroke-miterlimit="10" stroke-width=".036" fill="#A1A1A1"/>
    <path fill-rule="evenodd" clip-rule="evenodd" d="m148.45 516.37c-0.467 1.045-0.504 2.196-0.395 3.061 0.072 0.828 0.576 1.764 1.223 2.412 1.404 0.144 2.664 0.18 3.637-0.181 0.936-0.359 1.729-0.972 2.232-1.836-0.936-0.756-1.945-1.476-3.023-2.016-1.16-0.6-2.38-1.04-3.68-1.43z" fill="#fff"/>
    <path fill-rule="evenodd" clip-rule="evenodd" d="m149.89 524.29c0.756 0.144 1.691 0.144 2.807 0 1.117-0.145 2.412-0.469 3.889-0.828-0.396 2.016-0.936 3.456-1.619 4.464-0.686 1.008-1.621 1.439-2.664 1.439-0.721-0.72-1.26-1.332-1.621-2.231-0.44-0.79-0.65-1.87-0.8-2.84z" fill="#fff"/>
    <path d="m148.45 516.37l-1.836 0.612c-0.07 1.152 0 2.124 0.217 3.061 0.217 0.827 0.359 1.619 0.828 2.231l2.412-0.611v-0.001c-0.721-0.611-1.188-1.403-1.404-2.231-0.33-0.94-0.4-1.91-0.22-3.06z" fill-rule="evenodd" stroke="#000" stroke-miterlimit="10" clip-rule="evenodd" stroke-width=".036"/>
    <path d="m150.5 524.5c0.072 1.08 0.289 1.979 0.793 2.844 0.432 0.756 1.043 1.476 1.836 2.016l-2.629 0.612c-1.043-1.26-1.836-2.232-2.232-3.06-0.504-0.864-0.646-1.584-0.432-2.017 0.86-0.1 1.76-0.24 2.66-0.39z" fill-rule="evenodd" stroke="#000" stroke-miterlimit="10" clip-rule="evenodd" stroke-width=".036"/>
    <path d="m137.11 447.39c3.277-0.936 6.301-1.908 9.217-2.772 2.916-0.936 6.371-1.8 7.992-2.592 1.439-0.936 1.619-2.304 0.684-2.592-1.115-0.36-3.527-0.216-6.695 0.576-3.24 0.72-7.129 2.016-12.096 3.888-0.686-2.268-2.018-3.563-4.141-4.176-2.232-0.684-6.516-0.432-8.531 0.756-2.16 1.26-3.385 4.248-3.674 6.588-0.322 2.16 0.721 4.896 2.018 6.552 1.223 1.62 3.203 2.664 5.398 2.988 2.088 0.252 5.4-0.396 7.164-1.8 1.7-1.52 2.46-4.04 2.67-7.43z" fill-rule="evenodd" stroke="#000" clip-rule="evenodd" stroke-miterlimit="10" stroke-width=".036" fill="#A1A1A1"/>
    <path fill-rule="evenodd" clip-rule="evenodd" d="m127.61 439.98c-0.504 1.08-0.576 2.088-0.504 3.024 0.145 0.899 0.432 1.728 1.152 2.483 1.477 0.288 2.557 0.216 3.637-0.071 0.9-0.324 1.799-0.864 2.303-1.765-0.971-0.792-1.836-1.548-2.986-2.124-1.15-0.64-2.31-1.11-3.6-1.54z" fill="#fff"/>
    <path fill-rule="evenodd" clip-rule="evenodd" d="m128.76 447.93c0.756 0.108 1.656 0.144 2.844 0.108 1.117-0.145 2.412-0.324 3.889-0.685-0.504 1.944-1.045 3.456-1.764 4.393-0.756 0.972-1.693 1.367-2.664 1.332-0.684-0.685-1.152-1.44-1.549-2.269-0.4-0.93-0.65-1.76-0.76-2.88z" fill="#fff"/>
    <path d="m127.61 439.98l-1.836 0.576c-0.107 1.08-0.072 2.088 0.109 3.023 0.18 0.828 0.287 1.585 0.719 2.269l2.449-0.54c-0.686-0.685-1.08-1.44-1.332-2.269-0.29-0.94-0.33-1.91-0.11-3.06z" fill-rule="evenodd" stroke="#000" stroke-miterlimit="10" clip-rule="evenodd" stroke-width=".036"/>
    <path d="m129.37 448.15c0 1.044 0.289 2.052 0.721 2.88 0.396 0.828 0.936 1.477 1.764 2.088l-2.664 0.504c-1.008-1.224-1.764-2.304-2.123-3.096-0.469-0.863-0.576-1.548-0.324-2.052 0.86-0.11 1.72-0.21 2.62-0.32z" fill-rule="evenodd" stroke="#000" stroke-miterlimit="10" clip-rule="evenodd" stroke-width=".036"/>
    <path d="m143.84 540.56c2.701 0.108 6.732-0.684 12.385-2.231 5.652-1.585 12.492-4.068 21.096-7.309l1.619 8.101c-5.004 2.376-10.115 4.14-15.623 5.688-5.545 1.476-11.195 2.448-17.244 3.06-0.72-2.41-1.48-4.86-2.24-7.31z" fill-rule="evenodd" stroke="#000" clip-rule="evenodd" stroke-miterlimit="10" stroke-width=".036" fill="#A1A1A1"/>
    <path clip-rule="evenodd" d="m151.76 539.41c0.936-0.144 2.125-0.432 3.852-1.008 1.693-0.647 3.672-1.439 6.084-2.52l2.018 8.819c-2.773 0.685-5.004 1.368-7.092 1.765-2.053 0.359-3.744 0.72-5.076 0.792 0.08-2.59 0.15-5.21 0.22-7.84z" fill-rule="evenodd"/>
    <path fill-rule="evenodd" clip-rule="evenodd" d="m154.79 538.65l0.613 8.101 3.24-0.792-0.793-8.568-3.06 1.26z" fill="#fff"/>
    <path d="m170.63 520.26l0.791 2.628c-2.016-0.252-3.313 0-4.031 0.612-0.865 0.575-1.08 2.663-0.217 3.06 0.828 0.288 2.699 0 5.473-1.008l2.016 5.256 2.053-0.18-3.854-11.376c-0.72 0.32-1.48 0.65-2.23 1.01z" fill-rule="evenodd" stroke="#000" clip-rule="evenodd" stroke-miterlimit="10" stroke-width=".036" fill="#A1A1A1"/>
    <path d="m174.66 519.46l5.508 18.863 1.619-2.052c-1.332-5.363-2.41-9.216-3.238-11.952-0.865-2.699-1.477-4.176-1.836-4.283-0.68-0.18-1.37-0.36-2.05-0.58z" fill-rule="evenodd" stroke="#000" clip-rule="evenodd" stroke-miterlimit="10" stroke-width=".036" fill="#A1A1A1"/>
    <path d="m173.26 512.77l-15.623-46.476 2.627 0.216c1.549 3.348 2.52 6.12 3.061 8.315 0.467 2.196 0.467 3.816 0 4.86l11.16 32.652c-0.41 0.15-0.8 0.29-1.23 0.44z" fill-rule="evenodd" stroke="#000" clip-rule="evenodd" stroke-miterlimit="10" stroke-width=".036" fill="#A1A1A1"/>
    <path d="m172.03 513.38l-15.623-48.313-2.232 0.828 14.832 48.276c1.01-0.26 2.01-0.51 3.02-0.8z" fill-rule="evenodd" stroke="#000" clip-rule="evenodd" stroke-miterlimit="10" stroke-width=".036" fill="#A1A1A1"/>
    <path d="m146.29 445.7l12.959 43.416c-2.627 1.944-4.535 2.628-5.867 2.448-1.477-0.468-2.305-2.34-2.053-4.067 0.287-1.692 1.584-3.492 3.889-5.688l-10.98-35.063v-0.001c0.68-0.33 1.37-0.69 2.05-1.05z" fill-rule="evenodd" stroke="#000" clip-rule="evenodd" stroke-miterlimit="10" stroke-width=".036" fill="#A1A1A1"/>
    <path d="m136.14 472.7c1.367 5.148 2.699 10.836 3.852 17.641 1.152 6.731 2.16 14.147 3.023 22.536 1.908-0.648 3.744-0.756 5.904-0.612 1.98 0.18 5.58 1.872 6.48 1.62 0.791-0.396-0.145-1.225-1.404-3.853-1.404-2.808-3.637-3.888-6.695-12.384-3.205-8.676-10.117-34.308-11.988-38.556-1.91-4.18-1.58 0.35 0.83 13.6z" fill-rule="evenodd" stroke="#000" clip-rule="evenodd" stroke-miterlimit="10" stroke-width=".036" fill="#363C4A"/>
    <path d="m164.54 513.67c-0.938-2.34-2.342-4.933-4.068-7.92-1.98-3.061-6.229-11.736-6.48-9.937-0.145 1.8 1.691 8.604 5.652 20.7 1.63-0.93 3.25-1.87 4.9-2.84z" fill-rule="evenodd" stroke="#000" clip-rule="evenodd" stroke-miterlimit="10" stroke-width=".036" fill="#363C4A"/>
    <path d="m172.25 542.94c0.9 2.664 1.908 5.364 2.629 8.1 0.826 2.7 1.367 5.364 2.016 8.137 2.592 0.144 3.924-0.54 4.283-2.052 0.252-1.585-1.439-4.645-2.447-7.093-1.008-2.52-2.268-5.04-3.637-7.704-0.93 0.16-1.87 0.38-2.84 0.6z" fill-rule="evenodd" stroke="#000" clip-rule="evenodd" stroke-miterlimit="10" stroke-width=".036" fill="#A1A1A1"/>
    <path d="m176.89 542.11l2.447-1.008 3.637 15.624-6.09-14.61z" fill-rule="evenodd" stroke="#000" clip-rule="evenodd" stroke-miterlimit="10" stroke-width=".036" fill="#A1A1A1"/>
    <path d="m142.4 440.34c-2.664-7.021-4.859-12.708-5.58-16.057-0.756-3.312 1.801-2.52 1.295-4.283-0.504-1.765-2.016 0.72-3.311-2.809-1.26-3.528-3.492-11.556-4.357-17.64l2.629-1.008c1.332 7.991 2.736 13.644 4.068 17.243 1.332 3.492 3.313 2.809 3.852 4.068 0.324 1.224-1.801-0.144-1.225 3.24 0.576 3.348 2.088 8.748 4.68 16.632-0.69 0.18-1.37 0.4-2.06 0.62z" fill-rule="evenodd" stroke="#000" clip-rule="evenodd" stroke-miterlimit="10" stroke-width=".036" fill="#A1A1A1"/>
    <path d="m146.33 439.29c-2.664-7.057-4.5-12.061-5.256-15.408-0.721-3.313 1.799-2.521 1.295-4.284-0.504-1.8-2.016 0.684-3.311-2.808-1.26-3.528-3.602-12.564-4.465-18.648h2.771c1.369 7.992 2.664 13.645 4.033 17.244 1.332 3.492 3.313 2.808 3.852 4.068 0.396 1.151-1.801-0.036-1.188 3.239 0.611 3.204 2.016 8.496 4.607 16.021-0.74 0.19-1.53 0.37-2.32 0.58z" fill-rule="evenodd" stroke="#000" clip-rule="evenodd" stroke-miterlimit="10" stroke-width=".036" fill="#A1A1A1"/>
    <path d="m150.04 438.54c-2.664-7.056-3.311-12.384-4.031-15.731-0.721-3.313 1.115-2.664 0.611-4.428-0.504-1.801-2.268 0.144-3.563-3.349-1.26-3.563-4.033-11.16-4.896-17.244l1.836-0.107c2.016 7.02 3.889 12.132 5.615 15.479 1.656 3.24 4.105 2.952 4.572 4.393 0.252 1.296-2.375 0.72-2.051 4.104 0.359 3.42 1.654 8.856 4.031 16.452-0.69 0.15-1.41 0.29-2.13 0.44z" fill-rule="evenodd" stroke="#000" clip-rule="evenodd" stroke-miterlimit="10" stroke-width=".036" fill="#A1A1A1"/>
    <path d="m154.28 444.26c0.109 1.116 0.865 2.628 1.873 4.536 1.043 1.8 3.564 4.716 4.5 6.804 0.9 2.052 0.973 3.852 0.611 5.544 1.404 0 2.232 0.252 2.484 0.756 0.217 0.468-0.611 1.404-1.115 2.124-0.613 0.612-1.332 1.08-2.305 1.548l-3.24-1.728-2.988 1.044c0.9-2.124 1.152-4.284 0.613-6.48-0.648-2.304-2.521-4.823-3.672-6.876-1.08-2.124-2.09-4.104-2.881-5.796 2.03-0.45 4.08-0.96 6.13-1.46z" fill-rule="evenodd" stroke="#000" clip-rule="evenodd" stroke-miterlimit="10" stroke-width=".036" fill="#A1A1A1"/>
    <path d="m129.88 404.91c-2.557 0.792-5.51 0.72-8.857-0.612-3.455-1.44-8.388-5.688-11.483-7.056-3.132-1.332-5.4-1.297-7.092-0.864-1.728 0.359-2.88 1.332-3.312 3.06-0.576 1.656-0.396 5.22 0 6.805 0.144 1.439 0.648 2.159 1.8 2.304 1.296 0.071 3.096-1.513 5.544-1.692 2.232-0.18 4.392 0.072 8.424 0.324 3.996 0.036 9.107 0.288 15.48 0.36-0.14-0.85-0.32-1.72-0.5-2.62z" fill-rule="evenodd" stroke="#000" clip-rule="evenodd" stroke-miterlimit="10" stroke-width=".036" fill="#A1A1A1"/>
    <path d="m105.25 408.48c-1.08 4.104-1.476 7.272-1.188 9.792 0.216 2.448 1.152 4.14 2.664 4.932 1.404 0.685 4.752 0.505 6.012-0.684 1.152-1.296 2.088-4.644 1.295-6.3-0.792-1.692-2.807-2.628-6.047-3.24-0.18-0.72-0.18-1.584 0-2.448 0.18-0.899 0.396-1.943 0.936-2.987-1.21 0.29-2.43 0.61-3.66 0.94z" fill-rule="evenodd" stroke="#000" clip-rule="evenodd" stroke-miterlimit="10" stroke-width=".036" fill="#A1A1A1"/>
    <path stroke="#000" stroke-width=".036" stroke-miterlimit="10" d="m129.34 398.43l-4.824 0.072" fill="none"/>
    <path d="m118.9 402.1c-1.045-0.936-2.197-1.8-3.6-2.736-1.405-0.972-2.917-1.907-4.681-2.808-0.36-1.8-0.252-3.204 0.612-4.355 0.828-1.261 2.448-2.484 4.176-2.7 1.584-0.252 3.744 0.216 5.508 1.26 1.729 0.936 3.168 2.232 4.607 4.176-0.18 0.108 0.828 0.216 2.881-0.072 2.088-0.323 5.219-0.647 9.539-1.367l1.045 2.808c-1.98-0.036-4.068 0.072-6.408 0.324s-4.789 0.576-7.488 1.116c-0.287 0.792-0.936 1.512-1.943 2.304-1.06 0.72-2.43 1.41-4.26 2.05z" fill-rule="evenodd" stroke="#000" clip-rule="evenodd" stroke-miterlimit="10" stroke-width=".036" fill="#A1A1A1"/>
    <path fill-rule="evenodd" clip-rule="evenodd" d="m116.34 399.01c0.936-0.612 1.729-1.008 2.377-1.584 0.611-0.54 1.764-0.828 1.367-1.548-0.504-0.9-3.707-2.7-3.924-3.313-0.217-0.72 1.691-1.008 2.809-0.432 0.971 0.576 3.42 2.196 3.311 3.744-0.18 1.403-1.547 2.987-4.248 4.752-0.55-0.54-1.12-1.08-1.7-1.62z" fill="#fff"/>
    <path d="m119.98 392.64c-0.217 0.36 1.836 1.8 1.871 2.808-0.107 1.008-1.619 2.412-1.764 3.24-0.107 0.648 0.576 1.512 1.367 1.188 0.648-0.469 2.701-2.124 2.953-3.313 0.035-1.296-0.973-3.168-1.764-3.815-0.8-0.74-2.57-0.59-2.67-0.12z" fill-rule="evenodd" stroke="#000" stroke-miterlimit="10" clip-rule="evenodd" stroke-width=".036"/>
    <path d="m126.96 384.03c-3.025 0.181-5.689-0.144-7.992-0.684-2.305-0.684-3.672-2.268-6.049-2.952-2.556-0.792-6.732-1.62-8.928-1.368-2.376 0.288-3.96 1.656-4.608 2.988-0.756 1.224-0.396 2.916 0.504 4.5 0.936 1.476 2.484 4.32 4.788 4.5 2.124 0.072 5.508-3.096 8.064-3.816 2.484-0.863 4.031-0.827 6.732-0.863 2.592-0.072 5.471 0 8.783 0.359-0.42-0.87-0.85-1.77-1.28-2.67z" fill-rule="evenodd" stroke="#000" clip-rule="evenodd" stroke-miterlimit="10" stroke-width=".036" fill="#A1A1A1"/>
    <path fill-rule="evenodd" clip-rule="evenodd" d="m104.17 387.13c0.144-0.828 1.728-1.116 2.376-1.62 0.612-0.54 1.764-0.72 1.368-1.548-0.468-0.828-3.744-2.664-3.924-3.313-0.18-0.647 1.764-0.972 2.808-0.432 1.008 0.576 3.456 2.304 3.312 3.744-0.144 1.439-2.772 3.996-4.248 4.752-1.48 0.79-1.88-0.79-1.7-1.58z" fill="#fff"/>
    <path d="m107.81 380.72c-0.216 0.36 1.836 1.8 1.872 2.808-0.108 1.008-1.62 2.412-1.764 3.24-0.108 0.648 0.576 1.512 1.368 1.188 0.648-0.469 2.7-2.124 2.952-3.313 0.036-1.296-0.972-3.168-1.764-3.815-0.8-0.73-2.56-0.59-2.67-0.12z" fill-rule="evenodd" stroke="#000" stroke-miterlimit="10" clip-rule="evenodd" stroke-width=".036"/>
    <path d="m100.82 390.01c-2.376 0.107-3.672 0.396-4.32 1.008-0.648 0.576-0.324 1.8 0.684 2.556 0.972 0.685 2.52 1.332 4.932 1.801 1.044-0.36 2.124-0.576 3.384-0.505 1.224 0.036 2.376 0.217 3.744 0.685 0-0.72 0.072-1.332 0.36-1.98 0.252-0.684 0.576-1.26 1.116-1.872l-3.06-0.827c-1.008 0.827-2.016 1.188-3.168 1.079-1.25-0.19-2.3-0.84-3.67-1.95z" fill-rule="evenodd" stroke="#000" clip-rule="evenodd" stroke-miterlimit="10" stroke-width=".036" fill="#A1A1A1"/>
    <path d="m129.7 393.82c-0.539-0.792-0.684-1.764-0.432-2.628 0.252-1.115 1.873-2.16 1.945-2.987 0-0.792-0.721-1.152-2.018-1.368l-1.188-3.384c0.648-0.181 0.828-0.937 0.684-2.124-0.18-1.225-0.828-2.881-1.799-5.112 0.719 0 1.404-0.108 2.051-0.612 0.648-0.432 1.225-1.26 1.873-2.195l6.623 19.584-1.871 0.071-0.613-2.987-1.008 0.107 0.686 2.88c-0.865 0.072-1.693 0.181-2.484 0.324-0.91 0.11-1.59 0.25-2.45 0.43z" fill-rule="evenodd" stroke="#000" clip-rule="evenodd" stroke-miterlimit="10" stroke-width=".036" fill="#A1A1A1"/>
    <path d="m117.02 409.7c0.037 2.16 2.773 8.713 3.889 12.853 1.008 4.032 1.404 9 2.557 11.16 1.08 2.088 4.318 3.852 4.428 1.26-0.072-2.772-2.701-12.888-3.996-17.172-1.26-4.248-2.449-6.876-3.564-8.172-1.3-1.41-3.42-2.13-3.32 0.07z" fill-rule="evenodd" stroke="#000" clip-rule="evenodd" stroke-miterlimit="10" stroke-width=".036" fill="#363C4A"/>
    <path d="m105.79 370.06c2.664 0.396 5.076 0.108 7.38-0.864 2.16-1.115 3.96-3.96 6.228-5.075 2.268-1.08 5.4-1.908 7.309-1.368 1.871 0.432 3.059 2.16 3.563 4.067 0.252 1.836-0.324 5.509-1.439 6.984-1.188 1.404-3.168 1.548-5.111 1.548-1.98-0.18-4.068-1.943-6.553-2.231-2.52-0.36-5.328-0.324-8.424 0.107-1.332 0.433-2.268 0.612-2.952 0.396-0.756-0.324-1.26-1.08-1.224-1.692-0.01-0.65 0.35-1.23 1.21-1.88z" fill-rule="evenodd" stroke="#000" clip-rule="evenodd" stroke-miterlimit="10" stroke-width=".036" fill="#A1A1A1"/>
    <path fill-rule="evenodd" clip-rule="evenodd" d="m123.43 366.03c-0.072 0.828-1.619 1.261-2.16 1.872-0.576 0.612-1.691 0.9-1.188 1.656 0.504 0.792 3.961 2.269 4.248 2.88 0.252 0.612-1.656 1.152-2.736 0.72s-3.707-1.907-3.744-3.348c0.037-1.439 2.34-4.248 3.709-5.22 1.4-0.93 1.98 0.61 1.87 1.44z" fill="#fff"/>
    <path d="m124.76 372.19c0.072-0.576-2.123-1.584-2.16-2.592-0.215-1.044 1.404-2.736 1.404-3.42-0.072-0.792-0.791-1.512-1.477-1.044-0.828 0.432-2.52 2.34-2.592 3.636-0.035 1.188 1.297 2.988 2.197 3.6 0.8 0.49 2.45 0.24 2.63-0.19z" fill-rule="evenodd" stroke="#000" stroke-miterlimit="10" clip-rule="evenodd" stroke-width=".036"/>
    <path d="m91.464 352.03c-1.044 1.044-1.584 2.305-1.62 3.492-0.108 1.188 0.396 2.736 1.368 3.816 0.936 1.044 2.448 1.691 4.536 2.231l4.752 17.53 2.196-0.792-4.824-21.168 2.808-0.864c1.332 3.924 2.376 6.912 3.132 9.108 0.72 2.16 1.152 3.384 1.296 3.815l2.196 0.433c-1.044-3.528-1.944-6.3-2.556-8.856-0.684-2.483-0.864-4.248-1.512-6.12-0.756-1.979-0.72-5.04-2.664-5.436-2.024-0.39-5.012 0.41-9.116 2.82z" fill-rule="evenodd" stroke="#000" clip-rule="evenodd" stroke-miterlimit="10" stroke-width=".036" fill="#A1A1A1"/>
    <path d="m106.87 374.85l0.504 3.132 2.736 1.008-1.116-5.075-2.12 0.93z" fill-rule="evenodd" stroke="#000" clip-rule="evenodd" stroke-miterlimit="10" stroke-width=".036" fill="#A1A1A1"/>
    <path d="m107.56 349.18h5.868c2.701-1.944 5.076-2.7 6.732-2.7 1.691 0.036 2.951 1.62 3.492 2.952 0.432 1.296 0.611 3.24-0.432 4.428-1.189 1.044-4.141 1.944-5.941 1.729-1.764-0.324-3.203-3.276-4.607-3.853-1.476-0.647-2.916-0.72-4.176-0.071-0.29-0.83-0.61-1.66-0.93-2.49z" fill-rule="evenodd" stroke="#000" clip-rule="evenodd" stroke-miterlimit="10" stroke-width=".036" fill="#A1A1A1"/>
    <path d="m105.5 344.86c0.252-1.367 0.144-2.268-0.324-2.556-0.648-0.36-2.34-0.216-2.736 0.432-0.396 0.54-0.54-0.071 0.54 3.313 0.936 3.42 3.636 13.644 5.328 16.776 1.692 2.844 3.924 1.619 4.608 1.188 0.432-0.504-0.684-3.096-1.26-3.744-0.468-0.72-1.224-0.684-1.872-0.18-1.41-5.07-2.85-10.15-4.29-15.23z" fill-rule="evenodd" stroke="#000" clip-rule="evenodd" stroke-miterlimit="10" stroke-width=".036" fill="#A1A1A1"/>
    <path d="m99.888 340.33c2.34-1.44 4.5-2.052 6.48-1.836 1.908 0.18 2.988 2.772 5.184 3.06 2.052 0.18 5.795-0.72 7.344-1.872 1.439-1.26 2.195-3.744 1.439-5.364-0.828-1.764-3.889-4.212-5.977-4.428-2.159-0.18-5.183 2.016-6.695 3.24-1.62 1.044-1.584 2.34-2.808 3.204-1.296 0.792-2.952 1.44-4.968 1.8 0.006 0.72 0.006 1.44 0.006 2.2z" fill-rule="evenodd" stroke="#000" clip-rule="evenodd" stroke-miterlimit="10" stroke-width=".036" fill="#A1A1A1"/>
    <path fill-rule="evenodd" clip-rule="evenodd" d="m120.08 349.18c-0.035 0.612-1.188 0.936-1.619 1.404-0.434 0.432-1.297 0.684-0.9 1.224 0.396 0.612 2.988 1.692 3.203 2.16 0.18 0.468-1.26 0.9-2.088 0.54-0.791-0.324-2.771-1.404-2.771-2.521 0-1.044 1.729-3.168 2.771-3.888 1.05-0.71 1.49 0.48 1.41 1.09z" fill="#fff"/>
    <path d="m121.09 353.79c-0.035-0.396-1.547-1.225-1.619-1.944-0.109-0.828 0.936-2.052 1.043-2.556-0.107-0.612-0.611-1.152-1.115-0.792-0.504 0.18-1.98 1.872-1.943 2.735-0.109 0.937 1.043 2.16 1.654 2.7 0.58 0.25 1.84 0.25 1.98-0.15z" fill-rule="evenodd" stroke="#000" stroke-miterlimit="10" clip-rule="evenodd" stroke-width=".036"/>
    <path fill-rule="evenodd" clip-rule="evenodd" d="m113.71 333.16c0 0.828-1.44 1.476-1.944 2.16-0.468 0.648-1.548 1.116-0.972 1.8 0.648 0.684 4.284 1.728 4.608 2.304s-1.476 1.368-2.628 1.08c-1.116-0.324-3.924-1.44-4.104-2.844-0.18-1.44 1.728-4.536 2.988-5.652 1.25-1.11 2.01 0.33 2.04 1.15z" fill="#fff"/>
    <path d="m115.8 339.1c-0.109-0.576-2.233-1.332-2.485-2.268-0.288-1.044 1.008-2.844 0.971-3.6-0.18-0.828-1.043-1.332-1.619-0.828-0.72 0.504-2.16 2.664-2.088 3.96 0.108 1.296 1.692 2.664 2.664 3.276 0.9 0.4 2.45-0.1 2.56-0.54z" fill-rule="evenodd" stroke="#000" stroke-miterlimit="10" clip-rule="evenodd" stroke-width=".036"/>
    <path d="m99.744 347.42l-5.724-23.94-2.124 0.54c1.476 5.58 2.808 10.188 3.852 14.364 1.008 4.14 1.872 7.308 2.448 10.044 0.504-0.32 1.008-0.64 1.548-1z" fill-rule="evenodd" stroke="#000" clip-rule="evenodd" stroke-miterlimit="10" stroke-width=".036" fill="#A1A1A1"/>
    <path d="m92.688 331.51c-1.944-0.144-3.42 0.216-4.032 1.08-0.648 0.684-0.828 1.044-0.144 3.852 0.54 2.88 1.8 7.309 3.636 13.428l2.664-0.827c-1.332-1.62-1.8-3.097-1.8-4.429 0.108-1.476 0.684-2.628 2.124-3.852l-0.432-2.268c-0.756 0.468-1.296 0.756-1.764 1.26-0.432 0.468-0.792 0.756-0.936 1.26-1.26-2.304-1.8-3.96-1.476-5.256 0.288-1.296 1.296-2.088 3.168-2.376-0.324-0.6-0.648-1.21-1.008-1.86z" fill-rule="evenodd" stroke="#000" clip-rule="evenodd" stroke-miterlimit="10" stroke-width=".036" fill="#A1A1A1"/>
    <path d="m113.1 316.32c-3.672 0.072-7.488 0.648-11.592 1.728-4.212 0.936-11.34 3.636-12.924 4.5-1.62 0.828 0.684 1.08 3.42 0.756 2.7-0.396 9.612-2.088 12.672-2.7 2.952-0.612 4.68-1.08 5.184-1.116-1.98 0.612-2.88 1.26-3.24 1.944-0.396 0.612 0.036 1.584 1.44 1.944 1.44 0.252 5.904-0.36 7.165-0.324 1.152-0.072 1.152-0.072 0 0-0.68-2.23-1.4-4.47-2.12-6.73z" fill-rule="evenodd" stroke="#000" clip-rule="evenodd" stroke-miterlimit="10" stroke-width=".036" fill="#A1A1A1"/>
    <path d="m112.67 324.42l1.116 4.32c0.72 0.108 1.296 0.288 1.873 0.54 0.576 0.18 1.008 0.432 1.439 0.756l-1.439-6.048c-0.98 0.14-1.98 0.28-2.99 0.43z" fill-rule="evenodd" stroke="#000" clip-rule="evenodd" stroke-miterlimit="10" stroke-width=".036" fill="#A1A1A1"/>
    <path d="m86.964 304.18c2.592-1.512 4.788-2.088 6.984-1.872 2.052 0.18 3.276 2.772 5.616 3.06 2.304 0.18 6.192-0.72 7.92-1.872 1.512-1.26 2.304-3.744 1.548-5.364-0.864-1.764-4.212-4.212-6.444-4.428-2.376-0.18-5.58 2.016-7.272 3.24-1.8 1.008-1.656 2.412-3.024 3.24-1.404 0.828-3.132 1.368-5.328 1.764-0.002 0.72-0.002 1.48-0.002 2.23z" fill-rule="evenodd" stroke="#000" clip-rule="evenodd" stroke-miterlimit="10" stroke-width=".036" fill="#A1A1A1"/>
    <path fill-rule="evenodd" clip-rule="evenodd" d="m101.87 297.02c0.036 0.828-1.548 1.476-2.088 2.124-0.504 0.684-1.692 1.116-1.044 1.8 0.684 0.72 4.608 1.728 4.968 2.304s-1.584 1.368-2.808 1.08-4.248-1.404-4.464-2.844c-0.18-1.44 1.872-4.536 3.24-5.652 1.364-1.11 2.154 0.36 2.194 1.19z" fill="#fff"/>
    <path d="m104.14 302.92c-0.036-0.576-2.448-1.332-2.664-2.268-0.36-1.116 1.152-2.772 1.044-3.564-0.216-0.828-1.08-1.332-1.764-0.828-0.792 0.468-2.34 2.7-2.268 3.924 0.072 1.188 1.908 2.7 2.88 3.276 0.89 0.4 2.69-0.1 2.77-0.54z" fill-rule="evenodd" stroke="#000" stroke-miterlimit="10" clip-rule="evenodd" stroke-width=".036"/>
    <path d="m91.14 319.99l-3.924-15.156c0.504-0.288 0.936-0.648 1.296-0.684 0.324-0.216 0.468-0.108 0.576-0.072l0.756 3.92c1.908-0.072 2.916 0.288 3.168 0.936 0.18 0.684-0.468 1.656-1.944 3.06l1.944 7.74c-0.612 0.07-1.224 0.14-1.872 0.25z" fill-rule="evenodd" stroke="#000" clip-rule="evenodd" stroke-miterlimit="10" stroke-width=".036" fill="#A1A1A1"/>
    <path d="m110.22 302.64l3.06 12.6-2.664 0.252-2.808-11.34 2.41-1.51z" fill-rule="evenodd" stroke="#000" clip-rule="evenodd" stroke-miterlimit="10" stroke-width=".036" fill="#A1A1A1"/>
    <path d="m106.62 305.01l2.556 10.476-2.7 0.324c0.108-0.792 0.144-1.656 0.252-2.304 0.036-0.72 0.036-1.368 0-1.944-1.368-0.612-2.232-1.404-2.736-2.376-0.54-1.044-0.684-2.196-0.432-3.6 1.01-0.18 2.02-0.36 3.06-0.58z" fill-rule="evenodd" stroke="#000" clip-rule="evenodd" stroke-miterlimit="10" stroke-width=".036" fill="#A1A1A1"/>
    <path d="m88.728 299.36l-3.06-12.996c1.404-1.296 2.52-2.16 3.744-2.988 1.116-0.828 1.764-1.404 3.06-1.728 1.26-0.36 3.168-2.232 4.608-0.324 1.332 1.908 2.628 5.58 3.744 11.412 1.116-0.108 1.836-0.18 2.556-0.072 0.684 0.036 0.972 0.252 1.26 0.504-2.016-5.832-3.78-9.936-5.004-12.6-1.26-2.664-2.268-3.744-2.736-3.24 0.72-0.288 1.368-1.008 1.944-2.556 0.54-1.548 0.9-3.708 1.224-6.48 1.26-0.936 1.836-1.764 1.872-2.628-0.036-0.972-0.792-2.376-1.872-2.556-1.152-0.144-2.772 0.324-4.86 1.548-1.296-0.828-2.736-1.008-4.176-0.684-1.548 0.324-3.78 1.224-4.608 2.7-0.792 1.368-1.26 4.356 0 5.616 1.116 1.152 3.492 1.512 6.984 1.224-0.828 1.044-2.016 1.836-3.564 2.376-1.584 0.432-3.06-0.432-5.796 0.756-2.88 1.152-6.408 3.204-10.98 6.3-2.988-9.864-5.544-18.108-7.812-25.164-2.412-7.164-4.32-14.544-5.724-16.848-1.512-2.304-2.592-0.72-2.556 3.348-0.036 3.996 1.332 14.04 2.736 20.844 1.368 6.768 3.456 14.256 5.292 19.404 1.656 4.896 3.636 8.028 4.824 10.368 1.116 2.304 1.26 3.168 1.98 3.564 0.576 0.36 1.44-0.216 1.764-1.44 0.288-1.26 0.216-3.456-0.072-6.3l6.984-3.24c0.468 2.088 1.368 4.248 2.304 6.48 1.044 2.196 2.124 4.464 3.636 6.804 0.754-0.45 1.51-0.92 2.302-1.39z" fill-rule="evenodd" stroke="#000" clip-rule="evenodd" stroke-miterlimit="10" stroke-width=".036" fill="#A1A1A1"/>
    <path d="m117.49 293.2c-2.016-6.912-3.997-12.96-5.796-18.54-2.016-5.652-3.888-11.808-5.328-14.58-1.404-2.772-2.628-2.484-2.844-1.764-0.324 0.612-1.044-0.288 1.044 5.76 2.016 6.048 5.688 16.02 11.161 30.312 0.58-0.39 1.16-0.79 1.77-1.19z" fill-rule="evenodd" stroke="#000" clip-rule="evenodd" stroke-miterlimit="10" stroke-width=".036" fill="#A1A1A1"/>
    <path d="m114.94 294.39c-3.527-8.856-6.264-15.516-8.063-20.664-1.836-5.112-1.908-6.66-2.988-9.648-1.188-3.204-2.7-6.66-3.996-8.568-1.476-1.8-3.204-2.484-4.356-2.736-1.26-0.504-2.412-0.54-2.628 0.18-0.144 0.756 0.468 2.592 1.44 4.248 0.864 1.584 2.016 3.24 3.6 5.112 1.296-0.18 2.232 0.036 2.952 0.504 0.684 0.432 1.116 1.296 1.296 2.304 0.144 0.9-0.216 1.98-0.684 3.24l11.124 27.144c0.75-0.34 1.5-0.7 2.3-1.1z" fill-rule="evenodd" stroke="#000" clip-rule="evenodd" stroke-miterlimit="10" stroke-width=".036" fill="#A1A1A1"/>
    <path d="m111.19 295.51l-10.044-25.128c-0.252 1.764-0.576 2.988-0.828 4.104-0.324 0.972-0.72 1.692-1.044 2.016 0.252 0.648 1.008 2.304 2.124 5.112 1.152 2.7 2.52 6.552 4.536 11.412 0.9 0.252 1.512 0.684 2.124 1.296 0.468 0.612 0.936 1.404 1.116 2.376 0.64-0.4 1.33-0.8 2.01-1.19z" fill-rule="evenodd" stroke="#000" clip-rule="evenodd" stroke-miterlimit="10" stroke-width=".036" fill="#A1A1A1"/>
    <path d="m63.456 230.49l1.872 7.056c-1.224 0.612-1.692 1.332-1.692 1.872-0.036 0.504 0.684 1.116 1.872 1.548l8.064 28.692c-0.72 1.44-0.936 2.556-0.504 3.204s1.836 1.08 2.808 0.864c0.72-0.324 1.872-2.016 2.052-2.736 0.108-0.9-0.288-1.476-1.188-2.124l-0.108-1.08c1.728-0.432 3.636-1.116 5.724-2.052 2.124-1.008 4.788-2.412 6.732-3.816 1.836-1.44 3.024-3.276 3.996-5.112-1.044-2.448-1.728-4.248-2.052-5.796-0.396-1.476-0.576-2.556 0-3.24 0.576-0.972 1.476-1.584 3.24-1.548 1.656 0.144 5.112 1.908 6.624 2.232 1.404 0.144 1.656-0.036 1.872-0.936 0.108-1.008-0.36-3.744-1.26-4.752-0.972-1.152-2.772-1.872-4.428-1.62-1.836 0.144-4.572 1.908-6.12 2.808-1.62 0.756-2.628 1.62-3.168 2.196l-2.052-3.492c-1.08 0.108-2.016 0.396-2.808 0.864-1.008 0.324-2.232 1.116-2.268 1.692s1.728 1.548 2.376 1.8c0.576 0.108 1.044-0.288 1.26-1.044l2.808 6.66c-0.864 0.648-2.412 1.332-4.5 2.196-2.16 0.756-4.86 1.692-8.244 2.664l0.684 2.7c1.62-0.252 3.384-0.648 5.436-1.188 2.016-0.684 5.22-2.196 6.552-2.304 1.188-0.216 2.484 0.36 0.684 1.728-1.944 1.404-5.868 3.636-11.916 6.696l-3.24-10.188c1.08-0.648 1.728-1.224 1.548-1.728-0.072-0.504-0.972-1.08-2.304-1.44-0.576-2.376-1.044-4.428-1.548-6.552-0.54-2.124-0.972-4.104-1.44-5.94 3.456-0.9 6.084-1.404 8.172-1.368 2.052 0.036 2.484 1.44 3.924 1.44 1.26-0.072 3.384-0.72 3.996-1.944 0.576-1.44 0.288-4.752-0.432-6.048-0.756-1.224-3.168-1.584-4.176-1.368-1.044 0.144-1.908 1.224-2.448 2.124-0.648 0.864-0.252 1.692-1.728 2.628-1.656 0.792-4.212 1.584-7.812 2.232l-2.628-8.1c-0.722 0.55-1.478 1.09-2.234 1.63z" fill-rule="evenodd" stroke="#000" clip-rule="evenodd" stroke-miterlimit="10" stroke-width=".036" fill="#A1A1A1"/>
    <path fill-rule="evenodd" clip-rule="evenodd" d="m81.852 232.65c0.036 0.576-1.116 1.044-1.476 1.512-0.396 0.504-1.224 0.792-0.756 1.296s3.276 1.224 3.564 1.656c0.252 0.396-1.152 0.972-2.052 0.756-0.864-0.216-3.024-1.008-3.168-2.016-0.144-1.044 1.332-3.24 2.304-4.032 0.972-0.83 1.548 0.21 1.584 0.82z" fill="#fff"/>
    <path d="m83.472 236.86c-0.072-0.396-1.728-0.936-1.908-1.62-0.216-0.864 0.72-1.944 0.72-2.556-0.108-0.54-0.792-1.008-1.224-0.576-0.612 0.36-1.656 1.8-1.62 2.808 0 0.828 1.332 1.98 2.052 2.34 0.648 0.33 1.908-0.17 1.98-0.39z" fill-rule="evenodd" stroke="#000" stroke-miterlimit="10" clip-rule="evenodd" stroke-width=".036"/>
    <path fill-rule="evenodd" clip-rule="evenodd" d="m90.42 271.57c-0.072-0.612 1.08-1.188 1.44-1.728 0.324-0.54 1.188-0.936 0.648-1.44-0.54-0.468-3.564-0.972-3.852-1.404-0.324-0.396 1.116-1.116 2.052-0.972s3.24 0.792 3.492 1.836c0.252 1.08-1.116 3.528-2.052 4.428-0.972 0.92-1.656-0.12-1.728-0.73z" fill="#fff"/>
    <path d="m90.744 266.1c0 0.432 2.124 0.9 2.484 1.8 0.288 0.864-0.9 2.376-0.648 3.132 0.18 0.612 0.936 1.044 1.584 0.612 0.468-0.576 1.8-2.556 1.656-3.564-0.288-1.044-1.836-2.376-2.7-2.628-0.864-0.29-2.484 0.07-2.376 0.65z" fill-rule="evenodd" stroke="#000" stroke-miterlimit="10" clip-rule="evenodd" stroke-width=".036"/>
    <path fill-rule="evenodd" clip-rule="evenodd" d="m102.73 403.98c0.144-0.72 1.548-0.972 2.088-1.44s1.584-0.611 1.224-1.331c-0.396-0.721-3.312-2.376-3.492-2.952-0.144-0.54 1.584-0.864 2.484-0.36 0.936 0.504 3.096 2.052 2.952 3.313-0.144 1.26-2.448 3.527-3.78 4.212-1.29 0.68-1.65-0.72-1.47-1.44z" fill="#fff"/>
    <path d="m105.97 398.32c-0.144 0.36 1.548 1.513 1.62 2.484-0.144 0.828-1.44 2.16-1.548 2.88-0.072 0.612 0.504 1.332 1.188 1.044 0.576-0.359 2.376-1.979 2.628-2.916 0.108-1.188-0.972-2.771-1.584-3.384-0.69-0.64-2.2-0.53-2.31-0.1z" fill-rule="evenodd" stroke="#000" stroke-miterlimit="10" clip-rule="evenodd" stroke-width=".036"/>
    <path fill-rule="evenodd" clip-rule="evenodd" d="m105.9 421.22c0.108-0.576 1.224-0.756 1.692-1.152 0.432-0.359 1.26-0.504 0.972-1.08-0.324-0.611-2.664-1.907-2.808-2.376-0.108-0.468 1.26-0.684 2.016-0.288 0.72 0.396 2.484 1.62 2.376 2.664-0.108 1.009-1.98 2.845-3.06 3.385-1.05 0.59-1.33-0.56-1.19-1.14z" fill="#fff"/>
    <path d="m108.49 416.68c-0.108 0.252 1.26 1.188 1.332 1.98-0.18 0.72-1.116 1.691-1.26 2.34-0.036 0.54 0.288 1.008 0.972 0.828 0.432-0.396 1.98-1.513 2.124-2.376 0.036-0.937-0.756-2.269-1.26-2.736-0.71-0.57-1.72-0.35-1.9-0.03z" fill-rule="evenodd" stroke="#000" stroke-miterlimit="10" clip-rule="evenodd" stroke-width=".036"/>
    <path d="m63.672 220.59c3.24 0 5.976-0.504 8.496-1.368 2.412-1.044 4.464-3.924 6.156-4.176 1.728-0.18 3.276 1.332 3.816 2.736 0.396 1.296-0.144 4.14-1.62 4.932-1.728 0.54-5.472-0.864-8.172-0.864-2.772 0.036-5.472 0.432-8.244 1.188l0.828 4.86-1.944 1.368c-2.628-9.252-5.112-17.64-7.308-25.704-2.268-8.1-4.068-14.508-6.228-22.284-2.268-7.848-4.788-15.948-7.416-24.444-2.988 0.756-5.58 1.116-7.632 1.08-2.196-0.108-3.636-0.54-4.86-1.44-1.368-1.116-2.304-2.808-2.376-4.248-0.072-1.476 1.008-3.24 2.124-4.176 1.08-0.972 2.448-1.404 4.248-1.44-0.468 1.728-0.576 3.312 0.072 4.752 0.54 1.548 1.656 3.024 3.348 3.852 1.656 0.612 3.816 0.612 6.624 0l4.356 14.184c1.476-0.144 3.312-0.684 5.508-1.62 2.16-1.008 4.932-3.996 7.344-4.248 2.268-0.288 4.86 0.648 6.372 2.232 1.44 1.476 2.376 4.5 2.124 6.552-0.396 1.908-2.268 5.184-4.248 5.112-2.088-0.216-5.256-4.68-7.848-5.616-2.664-0.9-5.4-0.792-8.064 0.324l4.32 14.22c1.872 0.144 3.816-0.216 5.976-0.936 2.124-0.828 4.788-3.744 6.876-3.744 2.052 0 4.86 2.268 5.112 3.744 0 1.476-2.7 4.248-4.5 4.86-1.836 0.324-3.924-1.836-6.12-2.052-2.196-0.252-4.572 0-6.984 0.756l3.384 11.844c2.052-0.756 4.032-1.692 6.228-2.808 2.088-1.296 4.392-4.032 6.48-4.176 2.016-0.144 5.076 1.764 5.436 3.492 0.18 1.692-2.052 5.976-3.924 6.732-2.052 0.684-5.076-2.484-7.416-2.556-2.34-0.18-4.248 0.252-6.12 1.44 1.908 5.9 3.852 11.77 5.796 17.67z" fill-rule="evenodd" stroke="#000" clip-rule="evenodd" stroke-miterlimit="10" stroke-width=".036" fill="#A1A1A1"/>
    <path fill-rule="evenodd" clip-rule="evenodd" d="m79.98 216.99c0.036 0.576-1.116 1.044-1.476 1.512-0.396 0.504-1.224 0.792-0.756 1.296 0.504 0.504 3.276 1.224 3.564 1.656 0.252 0.396-1.152 0.972-2.052 0.756-0.864-0.216-3.024-1.008-3.168-2.016-0.144-1.044 1.332-3.24 2.304-4.032 0.972-0.83 1.548 0.21 1.584 0.82z" fill="#fff"/>
    <path d="m81.6 221.2c-0.072-0.396-1.728-0.936-1.908-1.62-0.216-0.864 0.72-1.944 0.72-2.556-0.108-0.54-0.792-1.008-1.224-0.576-0.612 0.36-1.656 1.8-1.62 2.808 0 0.828 1.332 1.98 2.052 2.34 0.648 0.33 1.908-0.17 1.98-0.39z" fill-rule="evenodd" stroke="#000" stroke-miterlimit="10" clip-rule="evenodd" stroke-width=".036"/>
    <path fill-rule="evenodd" clip-rule="evenodd" d="m70.584 196.62c0 0.648-1.224 1.188-1.656 1.692-0.396 0.54-1.296 0.9-0.792 1.44 0.54 0.54 3.6 1.332 3.888 1.8 0.288 0.432-1.26 1.08-2.232 0.828-0.936-0.216-3.312-1.116-3.492-2.232-0.144-1.116 1.476-3.564 2.556-4.428 1.044-0.87 1.692 0.25 1.728 0.9z" fill="#fff"/>
    <path d="m72.348 201.3c0-0.396-1.944-1.044-2.088-1.8-0.252-0.864 0.792-2.268 0.792-2.808-0.144-0.612-0.864-1.152-1.332-0.648-0.504 0.36-1.98 2.088-1.8 3.096 0.036 0.936 1.44 2.124 2.268 2.592 0.684 0.32 2.052-0.15 2.16-0.43z" fill-rule="evenodd" stroke="#000" stroke-miterlimit="10" clip-rule="evenodd" stroke-width=".036"/>
    <path fill-rule="evenodd" clip-rule="evenodd" d="m67.452 183.69c0.036 0.612-1.08 1.08-1.476 1.548-0.36 0.468-1.188 0.792-0.756 1.296 0.504 0.504 3.312 1.224 3.564 1.62 0.252 0.432-1.152 1.008-2.016 0.792-0.9-0.216-3.024-1.008-3.204-2.052-0.108-1.008 1.368-3.204 2.34-4.032 0.972-0.8 1.548 0.25 1.548 0.82z" fill="#fff"/>
    <path d="m69.108 187.94c-0.036-0.396-1.8-0.936-1.944-1.62-0.252-0.864 0.792-1.944 0.756-2.556-0.18-0.612-0.792-1.008-1.26-0.612-0.612 0.432-1.656 1.836-1.62 2.844 0 0.828 1.332 1.98 2.052 2.34 0.72 0.33 1.908-0.17 2.016-0.39z" fill-rule="evenodd" stroke="#000" stroke-miterlimit="10" clip-rule="evenodd" stroke-width=".036"/>
    <path fill-rule="evenodd" clip-rule="evenodd" d="m64.788 167.31c0.036 0.72-1.404 1.296-1.872 1.908s-1.512 1.008-0.936 1.62c0.612 0.612 4.14 1.548 4.464 2.052 0.288 0.504-1.44 1.224-2.556 0.972-1.08-0.288-3.78-1.26-3.96-2.556-0.18-1.26 1.656-4.032 2.88-5.04s1.944 0.3 1.98 1.05z" fill="#fff"/>
    <path d="m66.804 172.6c-0.072-0.432-2.16-1.296-2.376-2.052-0.252-0.9 0.936-2.556 0.936-3.168-0.216-0.756-0.972-1.188-1.584-0.756-0.684 0.468-2.052 2.34-2.016 3.528 0.072 1.116 1.62 2.376 2.556 2.952 0.864 0.3 2.34-0.06 2.484-0.5z" fill-rule="evenodd" stroke="#000" stroke-miterlimit="10" clip-rule="evenodd" stroke-width=".036"/>
    <path d="m43.008 161.66c-1.8 1.512-3.312 2.556-4.536 3.132-1.332 0.576-2.232-0.468-2.988 0.36-0.864 0.756-1.908 2.916-1.764 3.996 0.072 0.828 1.764 1.692 2.7 1.62 0.828-0.144 2.196-1.368 2.736-2.124 0.432-0.828-0.324-1.728 0.36-2.556 0.612-0.936 1.8-1.656 3.564-2.556 0-0.61-0.036-1.22-0.072-1.87z" fill-rule="evenodd" stroke="#000" clip-rule="evenodd" stroke-miterlimit="10" stroke-width=".036" fill="#A1A1A1"/>
    <path d="m48.876 183.76l-4.68 2.736c-1.224-2.34-2.124-3.852-3.096-4.68-1.008-0.9-2.016-1.152-2.448-0.18-0.468 0.972-0.612 3.852 0 5.868 0.54 1.944 2.34 4.5 3.312 5.724 0.756 1.116 1.224 1.692 1.8 1.188 0.468-0.612 1.044-2.124 1.44-4.68l4.608-3.168c-0.288-0.93-0.612-1.87-0.936-2.81z" fill-rule="evenodd" stroke="#000" clip-rule="evenodd" stroke-miterlimit="10" stroke-width=".036" fill="#A1A1A1"/>
    <path d="m43.584 195.93c-0.432 2.124-0.72 3.852-0.576 5.472-0.072 1.512 0.54 2.736 1.008 3.816 0.468 1.008 1.116 1.836 1.944 2.484 0.036 1.548 0.36 3.204 1.116 4.824s1.944 4.14 3.132 5.04c1.044 0.828 2.52 0.36 3.168 0 0.504-0.396 0.684-1.404 0.252-2.628l3.924-1.296-0.432-2.304-3.924 1.296c-0.216-1.728-0.468-3.024-0.756-4.176-0.36-1.116-0.648-1.944-1.008-2.484l3.888-1.26-0.576-2.052-4.248 1.548c-0.18-1.98-0.252-3.42-0.612-4.608-0.396-1.116-0.684-1.98-1.26-2.304l4.32-1.26-0.504-2.232-5.112 1.98c-0.576-0.504-1.224-0.684-1.8-0.684-0.684-0.01-1.332 0.32-1.944 0.82z" fill-rule="evenodd" stroke="#000" clip-rule="evenodd" stroke-miterlimit="10" stroke-width=".036" fill="#A1A1A1"/>
    <path d="m86.496 218.5l-11.772-34.308c1.26-0.648 1.8-1.476 1.62-2.196-0.216-0.864-1.26-1.62-2.988-2.556l-2.7-7.488c-0.432 1.044-0.828 1.944-1.044 2.556-0.324 0.576-0.468 0.864-0.576 1.008l16.236 45.036c0.396-0.68 0.792-1.36 1.224-2.05z" fill-rule="evenodd" stroke="#000" clip-rule="evenodd" stroke-miterlimit="10" stroke-width=".036" fill="#A1A1A1"/>
    <path d="m73.104 160.72c-1.116-4.5-2.34-9.324-3.816-14.868-1.548-5.616-3.888-13.68-4.932-17.964-0.972-4.176-0.648-5.76-1.116-7.236-0.648-1.62-1.008-1.764-2.196-2.376-1.296-0.72-4.104-1.908-4.932-1.62-0.864 0.36-0.756 1.908-0.108 3.384 0.54 1.296 2.376 2.556 3.42 4.608 0.972 1.872 0.216 1.296 2.304 7.308 1.944 6.048 5.112 15.624 9.504 28.872 0.612-0.02 1.224-0.06 1.872-0.1z" fill-rule="evenodd" stroke="#000" clip-rule="evenodd" stroke-miterlimit="10" stroke-width=".036" fill="#A1A1A1"/>
    <path d="m56.508 164.14l-2.556-10.404c0.504 0.324 1.044 0.144 1.62-0.252 0.54-0.54 1.008-1.296 1.548-2.556 1.8 0.396 2.952 0 3.996-1.188 0.864-1.188 1.836-4.464 1.548-5.94-0.396-1.548-1.98-3.096-3.348-3.24-1.44-0.288-3.78 0.864-5.076 1.8-1.44 0.864-2.34 1.98-3.096 3.492-1.656-0.396-2.916-0.216-3.636 0.684-0.792 0.792-1.584 2.952-0.864 4.392 0.612 1.332 2.124 2.664 4.68 3.852l3.564 11.304c0.54-0.63 1.08-1.28 1.62-1.93z" fill-rule="evenodd" stroke="#000" clip-rule="evenodd" stroke-miterlimit="10" stroke-width=".036" fill="#A1A1A1"/>
    <path d="m30.372 146.47l-5.868-23.652c-0.36 0.972-0.864 1.116-1.368 0.576-0.504-0.684-1.656-2.556-1.8-4.068-0.288-1.584-0.648-3.888 0.288-4.968 0.864-1.152 3.996-2.052 5.076-1.584 0.936 0.36 0.828 2.412 0.792 4.068 0 1.512-0.504 3.276-1.116 5.292 1.656-1.224 3.924-2.412 6.804-3.168 2.916-0.792 6.264-1.548 10.476-1.872 1.188-1.908 2.376-2.628 3.996-2.448 1.476 0.216 3.924 2.304 5.112 3.744 1.152 1.404 2.016 3.528 1.62 4.572-0.576 0.972-3.168 1.548-4.86 1.044-1.836-0.648-3.672-2.16-5.796-4.68-3.744 0.468-7.02 1.224-9.684 2.268-2.736 0.972-5.004 2.268-6.66 3.744l6.048 20.268c-1.008 0.29-2.016 0.58-3.06 0.87z" fill-rule="evenodd" stroke="#000" clip-rule="evenodd" stroke-miterlimit="10" stroke-width=".036" fill="#A1A1A1"/>
    <path d="m35.484 77.456l6.552 19.584 5.112-2.736-6.732-17.784-1.8 0.252 5.868 17.028-1.26 0.684-6.228-17.352-1.512 0.324z" fill-rule="evenodd" stroke="#000" clip-rule="evenodd" stroke-miterlimit="10" stroke-width=".036" fill="#A1A1A1"/>
    <path d="m55.752 115.04l-13.284-43.236c-0.108 0.288-0.324 0.36-0.792-0.18-0.504-0.648-1.332-2.556-1.944-2.808-0.612-0.216-1.26 1.08-1.8 1.548-0.612 0.324-1.152 0.972-1.764 0.828-0.756-0.252-2.052-2.052-2.484-1.512-0.576 0.576-0.72 3.816-0.576 5.004 0.144 1.08 0.648 1.548 1.512 1.548l6.48-0.432 13.608 39.672c0.324-0.14 0.684-0.29 1.044-0.43z" fill-rule="evenodd" stroke="#000" clip-rule="evenodd" stroke-miterlimit="10" stroke-width=".036" fill="#A1A1A1"/>
    <path d="m46.968 143.55c-1.296-1.188-4.68-9.612-5.436-12.924-0.792-3.564-0.108-8.244 1.08-7.236 1.116 1.188 5.04 10.476 5.796 13.968 0.648 3.35-0.288 7.31-1.44 6.19z" fill-rule="evenodd" stroke="#000" clip-rule="evenodd" stroke-miterlimit="10" stroke-width=".036" fill="#363C4A"/>
    <path d="m41.604 113.46c-0.864-4.032-5.364-17.712-8.244-26.46-3.06-8.82-7.704-23.364-8.928-25.452-1.188-1.98 0.036 6.336 2.016 13.284 1.98 6.768 7.236 21.384 9.36 27.324 1.98 5.868 1.152 5.832 2.232 7.813 0.936 1.9 4.248 7.23 3.564 3.49z" fill-rule="evenodd" stroke="#000" clip-rule="evenodd" stroke-miterlimit="10" stroke-width=".036" fill="#363C4A"/>
    <path d="m33.36 66.296c0.288-0.828 0.36-1.729-0.18-2.7-0.504-1.08-1.836-2.88-2.736-3.312-0.972-0.468-2.556-0.072-2.808 0.756-0.468 0.792-0.216 2.268 0.612 3.744 0.792 1.368 2.268 2.952 4.428 4.608 0.324-0.792 0.576-1.332 0.756-1.476 0.18-0.216 0.216-0.18 0.252 0.252-0.108-0.612-0.216-1.224-0.324-1.872z" fill-rule="evenodd" stroke="#000" clip-rule="evenodd" stroke-miterlimit="10" stroke-width=".036" fill="#A1A1A1"/>
    <path d="m17.664 51.68c-0.288-0.72 4.572-0.792 6.66-0.36 1.908 0.396 4.824 1.296 5.256 2.556 0.288 1.152-0.864 3.204-2.628 4.356-1.836 1.008-7.416 2.304-7.596 1.944-0.18-0.468 7.092-3.24 6.84-4.572-0.396-1.476-8.244-3.24-8.532-3.924z" fill-rule="evenodd" stroke="#000" clip-rule="evenodd" stroke-miterlimit="10" stroke-width=".036" fill="#363C4A"/>
    <path d="m14.676 45.956l-3.636-9.432 5.436-1.44 1.872 10.116-3.672 0.756z" fill-rule="evenodd" stroke="#000" clip-rule="evenodd" stroke-miterlimit="10" stroke-width=".036" fill="#A16121"/>
    <path d="m12.228 35.516l-4.932-15.157 4.248-0.864 2.988 15.516-2.304 0.505z" fill-rule="evenodd" stroke="#000" clip-rule="evenodd" stroke-miterlimit="10" stroke-width=".036" fill="#FF8000"/>
    <path d="m7.044 19.64l-6.408-18.72h1.8c0.936 3.168 1.476 4.752 1.62 4.752 0.108-0.036-0.18-1.656-0.864-4.86h1.872l1.44 6.912-0.828-6.984c0.468-0.036 0.936-0.108 1.44-0.18l0.252 0.864 3.672 17.352-4.104 0.756 0.108 0.108z" fill-rule="evenodd" stroke="#000" clip-rule="evenodd" stroke-miterlimit="10" stroke-width=".036" fill="#FFFF80"/>
  </g>
  <metadata>
    <rdf:RDF>
      <cc:Work>
        <dc:format>image/svg+xml</dc:format>
        <dc:type rdf:resource="http://purl.org/dc/dcmitype/StillImage"/>
        <cc:license rdf:resource="http://creativecommons.org/licenses/publicdomain/"/>
        <dc:publisher>
          <cc:Agent rdf:about="http://openclipart.org/">
            <dc:title>Openclipart</dc:title>
          </cc:Agent>
        </dc:publisher>
        <dc:title>Oboe</dc:title>
        <dc:date>2006-10-17T10:43:57</dc:date>
        <dc:description>clip art, clipart, instrument, music, oboe, </dc:description>
        <dc:source>http://openclipart.org/detail/8490/oboe-by-gerald_g-8490</dc:source>
        <dc:creator>
          <cc:Agent>
            <dc:title>Gerald_G</dc:title>
          </cc:Agent>
        </dc:creator>
        <dc:subject>
          <rdf:Bag>
            <rdf:li>clip art</rdf:li>
            <rdf:li>clipart</rdf:li>
            <rdf:li>instrument</rdf:li>
            <rdf:li>music</rdf:li>
            <rdf:li>oboe</rdf:li>
          </rdf:Bag>
        </dc:subject>
      </cc:Work>
      <cc:License rdf:about="http://creativecommons.org/licenses/publicdomain/">
        <cc:permits rdf:resource="http://creativecommons.org/ns#Reproduction"/>
        <cc:permits rdf:resource="http://creativecommons.org/ns#Distribution"/>
        <cc:permits rdf:resource="http://creativecommons.org/ns#DerivativeWorks"/>
      </cc:License>
    </rdf:RDF>
  </metadata>
</svg>
